HIERARCHY
ROOT Hips
{
  OFFSET 5.80788e-005 67.184 3.4734
  CHANNELS 6 Xposition Yposition Zposition Zrotation Xrotation Yrotation
  JOINT Chest
  {
    OFFSET 0 8.7983 -4.7612
    CHANNELS 6 Xposition Yposition Zposition Zrotation Xrotation Yrotation
    JOINT Chest2
    {
      OFFSET 0 8.0291 0.4195
      CHANNELS 6 Xposition Yposition Zposition Zrotation Xrotation Yrotation
      JOINT Chest3
      {
        OFFSET 0 9.9351 -2.2114
        CHANNELS 6 Xposition Yposition Zposition Zrotation Xrotation Yrotation
        JOINT Neck
        {
          OFFSET 0 22.3885 -0.4656
          CHANNELS 6 Xposition Yposition Zposition Zrotation Xrotation Yrotation
          JOINT Head
          {
            OFFSET -0.0001 12.643 3.4389
            CHANNELS 6 Xposition Yposition Zposition Zrotation Xrotation Yrotation
            End Site
            {
              OFFSET 0.0001 17.6655 0.5274
            }
          }
        }
        JOINT LeftCollar
        {
          OFFSET 2.2603 21.606 7.4023
          CHANNELS 6 Xposition Yposition Zposition Zrotation Xrotation Yrotation
          JOINT LeftShoulder
          {
            OFFSET 13.5163 -1.1332 -5.0146
            CHANNELS 6 Xposition Yposition Zposition Zrotation Xrotation Yrotation
            JOINT LeftElbow
            {
              OFFSET -0.0995 -28.05 -0.2431
              CHANNELS 6 Xposition Yposition Zposition Zrotation Xrotation Yrotation
              JOINT LeftWrist
              {
                OFFSET 0.0679 -23.3996 -0.1402
                CHANNELS 6 Xposition Yposition Zposition Zrotation Xrotation Yrotation
                JOINT LeftFinger1
                {
                  OFFSET 0.7932 -9.069 2.5189
                  CHANNELS 6 Xposition Yposition Zposition Zrotation Xrotation Yrotation
                  JOINT LeftFinger11
                  {
                    OFFSET -0.8272 -3.3923 0.5977
                    CHANNELS 6 Xposition Yposition Zposition Zrotation Xrotation Yrotation
                    JOINT LeftFinger12
                    {
                      OFFSET -0.5649 -2.3158 0.4082
                      CHANNELS 6 Xposition Yposition Zposition Zrotation Xrotation Yrotation
                      End Site
                      {
                        OFFSET -0.4919 -1.6479 0.2673
                      }
                    }
                  }
                }
                JOINT LeftFinger2
                {
                  OFFSET 0.9159 -9.2044 0.2193
                  CHANNELS 6 Xposition Yposition Zposition Zrotation Xrotation Yrotation
                  JOINT LeftFinger21
                  {
                    OFFSET 0.0117 -4.1944 -0.0248
                    CHANNELS 6 Xposition Yposition Zposition Zrotation Xrotation Yrotation
                    JOINT LeftFinger22
                    {
                      OFFSET 0.0071 -2.3249 -0.0142
                      CHANNELS 6 Xposition Yposition Zposition Zrotation Xrotation Yrotation
                      End Site
                      {
                        OFFSET -0.1475 -2.0882 0.0028
                      }
                    }
                  }
                }
                JOINT LeftFinger3
                {
                  OFFSET 0.6113 -8.7231 -2.0637
                  CHANNELS 6 Xposition Yposition Zposition Zrotation Xrotation Yrotation
                  JOINT LeftFinger31
                  {
                    OFFSET -0.1927 -3.8059 -0.2383
                    CHANNELS 6 Xposition Yposition Zposition Zrotation Xrotation Yrotation
                    JOINT LeftFinger32
                    {
                      OFFSET -0.1091 -2.1688 -0.1362
                      CHANNELS 6 Xposition Yposition Zposition Zrotation Xrotation Yrotation
                      End Site
                      {
                        OFFSET -0.2358 -1.9176 -0.0906
                      }
                    }
                  }
                }
                JOINT LeftFinger4
                {
                  OFFSET -0.6151 -8.0947 -3.5641
                  CHANNELS 6 Xposition Yposition Zposition Zrotation Xrotation Yrotation
                  JOINT LeftFinger41
                  {
                    OFFSET -0.4882 -2.341 -0.6462
                    CHANNELS 6 Xposition Yposition Zposition Zrotation Xrotation Yrotation
                    JOINT LeftFinger42
                    {
                      OFFSET -0.3575 -1.7167 -0.4742
                      CHANNELS 6 Xposition Yposition Zposition Zrotation Xrotation Yrotation
                      End Site
                      {
                        OFFSET -0.4187 -1.5237 -0.3496
                      }
                    }
                  }
                }
                JOINT LeftFinger0
                {
                  OFFSET -1.42 -1.8761 1.4223
                  CHANNELS 6 Xposition Yposition Zposition Zrotation Xrotation Yrotation
                  JOINT LeftFinger01
                  {
                    OFFSET -1.1471 -3.4929 2.6334
                    CHANNELS 6 Xposition Yposition Zposition Zrotation Xrotation Yrotation
                    JOINT LeftFinger02
                    {
                      OFFSET -0.823 -2.3 1.6571
                      CHANNELS 6 Xposition Yposition Zposition Zrotation Xrotation Yrotation
                      End Site
                      {
                        OFFSET -0.5822 -1.6914 1.1582
                      }
                    }
                  }
                }
              }
            }
          }
        }
        JOINT RightCollar
        {
          OFFSET -2.2603 21.606 7.4023
          CHANNELS 6 Xposition Yposition Zposition Zrotation Xrotation Yrotation
          JOINT RightShoulder
          {
            OFFSET -13.5187 -1.1334 -5.0155
            CHANNELS 6 Xposition Yposition Zposition Zrotation Xrotation Yrotation
            JOINT RightElbow
            {
              OFFSET 0.0994 -28.0499 -0.2431
              CHANNELS 6 Xposition Yposition Zposition Zrotation Xrotation Yrotation
              JOINT RightWrist
              {
                OFFSET -0.0679 -23.3996 -0.1402
                CHANNELS 6 Xposition Yposition Zposition Zrotation Xrotation Yrotation
                JOINT RightFinger1
                {
                  OFFSET -0.7932 -9.0691 2.5189
                  CHANNELS 6 Xposition Yposition Zposition Zrotation Xrotation Yrotation
                  JOINT RightFinger11
                  {
                    OFFSET 0.8272 -3.3923 0.5977
                    CHANNELS 6 Xposition Yposition Zposition Zrotation Xrotation Yrotation
                    JOINT RightFinger12
                    {
                      OFFSET 0.565 -2.3158 0.4082
                      CHANNELS 6 Xposition Yposition Zposition Zrotation Xrotation Yrotation
                      End Site
                      {
                        OFFSET 0.4919 -1.6479 0.2673
                      }
                    }
                  }
                }
                JOINT RightFinger2
                {
                  OFFSET -0.916 -9.2044 0.2193
                  CHANNELS 6 Xposition Yposition Zposition Zrotation Xrotation Yrotation
                  JOINT RightFinger21
                  {
                    OFFSET -0.0117 -4.1944 -0.0248
                    CHANNELS 6 Xposition Yposition Zposition Zrotation Xrotation Yrotation
                    JOINT RightFinger22
                    {
                      OFFSET -0.0071 -2.3249 -0.0142
                      CHANNELS 6 Xposition Yposition Zposition Zrotation Xrotation Yrotation
                      End Site
                      {
                        OFFSET 0.1475 -2.0882 0.0028
                      }
                    }
                  }
                }
                JOINT RightFinger3
                {
                  OFFSET -0.6113 -8.7231 -2.0637
                  CHANNELS 6 Xposition Yposition Zposition Zrotation Xrotation Yrotation
                  JOINT RightFinger31
                  {
                    OFFSET 0.1927 -3.8059 -0.2383
                    CHANNELS 6 Xposition Yposition Zposition Zrotation Xrotation Yrotation
                    JOINT RightFinger32
                    {
                      OFFSET 0.1091 -2.1688 -0.1362
                      CHANNELS 6 Xposition Yposition Zposition Zrotation Xrotation Yrotation
                      End Site
                      {
                        OFFSET 0.2358 -1.9176 -0.0906
                      }
                    }
                  }
                }
                JOINT RightFinger4
                {
                  OFFSET 0.6151 -8.0947 -3.564
                  CHANNELS 6 Xposition Yposition Zposition Zrotation Xrotation Yrotation
                  JOINT RightFinger41
                  {
                    OFFSET 0.4882 -2.341 -0.6462
                    CHANNELS 6 Xposition Yposition Zposition Zrotation Xrotation Yrotation
                    JOINT RightFinger42
                    {
                      OFFSET 0.3574 -1.7166 -0.4742
                      CHANNELS 6 Xposition Yposition Zposition Zrotation Xrotation Yrotation
                      End Site
                      {
                        OFFSET 0.4187 -1.5237 -0.3496
                      }
                    }
                  }
                }
                JOINT RightFinger0
                {
                  OFFSET 1.4199 -1.8761 1.4221
                  CHANNELS 6 Xposition Yposition Zposition Zrotation Xrotation Yrotation
                  JOINT RightFinger01
                  {
                    OFFSET 1.1472 -3.4929 2.6336
                    CHANNELS 6 Xposition Yposition Zposition Zrotation Xrotation Yrotation
                    JOINT RightFinger02
                    {
                      OFFSET 0.8229 -2.3 1.6571
                      CHANNELS 6 Xposition Yposition Zposition Zrotation Xrotation Yrotation
                      End Site
                      {
                        OFFSET 0.5822 -1.6914 1.1582
                      }
                    }
                  }
                }
              }
            }
          }
        }
      }
    }
  }
  JOINT RightHip
  {
    OFFSET -9.412 3.9771 -0.7758
    CHANNELS 6 Xposition Yposition Zposition Zrotation Xrotation Yrotation
    JOINT RightKnee
    {
      OFFSET -0.7531 -40.938 0
      CHANNELS 6 Xposition Yposition Zposition Zrotation Xrotation Yrotation
      JOINT RightAnkle
      {
        OFFSET 0 -40.1986 0
        CHANNELS 6 Xposition Yposition Zposition Zrotation Xrotation Yrotation
        JOINT RightToe
        {
          OFFSET 0 -4.4182 9.239
          CHANNELS 6 Xposition Yposition Zposition Zrotation Xrotation Yrotation
          End Site
          {
            OFFSET 0 0 6.1981
          }
        }
      }
    }
  }
  JOINT LeftHip
  {
    OFFSET 9.4119 3.9773 -0.7758
    CHANNELS 6 Xposition Yposition Zposition Zrotation Xrotation Yrotation
    JOINT LeftKnee
    {
      OFFSET 0.7532 -40.9383 0
      CHANNELS 6 Xposition Yposition Zposition Zrotation Xrotation Yrotation
      JOINT LeftAnkle
      {
        OFFSET 0 -40.1986 0
        CHANNELS 6 Xposition Yposition Zposition Zrotation Xrotation Yrotation
        JOINT LeftToe
        {
          OFFSET 0 -4.4182 9.239
          CHANNELS 6 Xposition Yposition Zposition Zrotation Xrotation Yrotation
          End Site
          {
            OFFSET 0 0 6.1981
          }
        }
      }
    }
  }
}
MOTION
Frames:	4
Frame Time:	0.0333333
39.8157 3.34253 11.0737 -3.5033e-007 -87.2036 -3.70085e-007 0 8.7983 -4.7612 -0.0271933 5.60243 -0.102126 0 8.0291 0.4195 -0.0446188 11.2049 -0.203032 7.10543e-015 9.9351 -2.2114 -0.044619 11.2049 -0.203033 0 22.3885 -0.4656 2.82142e-008 -4.70631 -2.79261e-007 -0.0001 12.643 3.4389 9.76612e-008 -25.5406 1.49246e-007 2.2603 21.606 7.4023 10.8263 12.4232 -37.2481 13.5163 -1.1332 -5.0146 31.4736 3.86947 10.538 -0.0995 -28.05 -0.2431 -17.51 -23.4128 -16.063 0.0679 -23.3996 -0.1402 -15.0444 0.569415 -34.8168 0.7932 -9.069 2.5189 -3.18055e-015 0 1.78906e-015 -0.8272 -3.3923 0.5977 1.93108e-032 -7.95139e-016 1.39149e-015 -0.5649 -2.3158 0.4082 -3.18055e-015 -7.95139e-016 1.78906e-015 0.9159 -9.2044 0.2193 -3.18055e-015 0 1.78906e-015 0.0117 -4.1944 -0.0248 -0.0128145 0.00233141 9.45493e-005 0.0071 -2.3249 -0.0142 -3.18055e-015 0 -1.19271e-015 0.6113 -8.7231 -2.0637 -3.18055e-015 0 1.78906e-015 -0.1927 -3.8059 -0.2383 -0.0160433 0.0030076 0.000867586 -0.1091 -2.1688 -0.1362 3.18055e-015 0 2.18663e-015 -0.6151 -8.0947 -3.5641 -3.18055e-015 0 1.78906e-015 -0.4882 -2.341 -0.6462 -0.0125963 0.0031366 0.00282983 -0.3575 -1.7167 -0.4742 -3.03456e-032 7.95139e-016 2.18663e-015 -1.42 -1.8761 1.4223 -3.18055e-015 0 1.78906e-015 -1.1471 -3.4929 2.6334 1.93108e-032 -7.95139e-016 1.39149e-015 -0.823 -2.3 1.6571 -3.18055e-015 -7.95139e-016 1.78906e-015 -2.2603 21.606 7.4023 -11.2949 12.1579 32.0281 -13.5187 -1.1334 -5.0155 -31.4557 1.98592 -5.85853 0.0994 -28.0499 -0.2431 16.7811 -23.3319 15.7281 -0.0679 -23.3996 -0.1402 14.5904 -0.478145 35.2308 -0.7932 -9.0691 2.5189 -3.18055e-015 0 -1.98785e-015 0.8272 -3.3923 0.5977 -3.18055e-015 -7.95139e-016 -3.57812e-015 0.565 -2.3158 0.4082 3.18055e-015 -7.95139e-016 -1.59028e-015 -0.916 -9.2044 0.2193 -3.18055e-015 0 -1.98785e-015 -0.0117 -4.1944 -0.0248 0.0129502 0.00229954 -8.9271e-005 -0.0071 -2.3249 -0.0142 -3.18055e-015 0 7.95139e-016 -0.6113 -8.7231 -2.0637 -3.18055e-015 0 -1.98785e-015 0.1927 -3.8059 -0.2383 0.0163154 0.00304132 -0.000884642 0.1091 -2.1688 -0.1362 -0 0 2.38542e-015 0.6151 -8.0947 -3.564 -3.18055e-015 0 -1.98785e-015 0.4882 -2.341 -0.6462 0.0146053 0.00367676 -0.0032728 0.3574 -1.7166 -0.4742 3.18055e-015 -7.95139e-016 -2.78299e-015 1.4199 -1.8761 1.4221 -3.18055e-015 0 -1.98785e-015 1.1472 -3.4929 2.6336 -3.18055e-015 -7.95139e-016 -3.57812e-015 0.8229 -2.3 1.6571 3.18055e-015 -7.95139e-016 -1.59028e-015 -9.412 3.9771 -0.7758 -129.703 -22.5288 -164.178 -0.7531 -40.938 -3.55271e-015 -167.554 39.0452 138.296 0 -40.1986 1.77636e-015 -0.680418 48.4498 -8.62505 3.55272e-015 -4.4182 9.23901 3.18055e-015 0 -0 9.4119 3.9773 -0.7758 138.382 -25.0013 164.248 0.7532 -40.9383 2.22045e-015 173.69 46.5817 179.05 -7.10543e-015 -40.1986 0 7.66708 49.0555 3.79912 0 -4.4182 9.239 -6.2759e-006 -1.37992e-005 -4.00474e-007 
39.8141 3.21065 10.999 8.08793e-008 -86.4051 6.97695e-008 0 8.7983 -4.7612 -0.026395 5.40302 -0.102562 -7.10543e-015 8.0291 0.4195 -0.0433153 10.8061 -0.203982 0 9.9351 -2.2114 -0.0433155 10.8061 -0.203983 -7.10543e-015 22.3885 -0.4656 -1.30738e-007 -5.08923 -3.99226e-007 -0.0001 12.643 3.4389 5.06982e-008 -26.1194 1.28798e-007 2.2603 21.606 7.4023 9.65645 13.1338 -37.2549 13.5163 -1.1332 -5.0146 32.2461 3.94868 10.5485 -0.0995 -28.05 -0.2431 -16.6696 -22.6331 -15.6849 0.0679 -23.3996 -0.1402 -15.0594 -0.104766 -35.0614 0.7932 -9.069 2.5189 4.47983e-006 1.99431e-006 3.25612e-006 -0.8272 -3.3923 0.5977 -9.54166e-015 0 5.96354e-016 -0.5649 -2.3158 0.4082 -6.36111e-015 7.95139e-016 -1.98785e-015 0.9159 -9.2044 0.2193 4.47983e-006 1.99431e-006 3.25612e-006 0.0117 -4.1944 -0.0248 -0.0128252 0.00231572 8.10442e-005 0.0071 -2.3249 -0.0142 3.31043e-032 1.59028e-015 -1.19271e-015 0.6113 -8.7231 -2.0637 4.47983e-006 1.99431e-006 3.25612e-006 -0.1927 -3.8059 -0.2383 -0.0160621 0.00300062 0.000864395 -0.1091 -2.1688 -0.1362 -1.27222e-014 -3.97569e-015 1.03368e-014 -0.6151 -8.0947 -3.5641 4.47983e-006 1.99431e-006 3.25612e-006 -0.4882 -2.341 -0.6462 -0.0125747 0.00311144 0.00282485 -0.3575 -1.7167 -0.4742 -3.18055e-015 0 -5.96354e-016 -1.42 -1.8761 1.4223 4.47983e-006 1.99431e-006 3.25612e-006 -1.1471 -3.4929 2.6334 -9.54166e-015 0 5.96354e-016 -0.823 -2.3 1.6571 -6.36111e-015 7.95139e-016 -1.98785e-015 -2.2603 21.606 7.4023 -10.0937 12.8892 32.04 -13.5187 -1.1334 -5.0155 -32.2809 2.02097 -5.91482 0.0994 -28.0499 -0.2431 15.952 -22.5613 15.3622 -0.0679 -23.3996 -0.1402 14.6188 -1.15536 35.4566 -0.7932 -9.0691 2.5189 2.02658e-006 -4.53747e-006 -3.75742e-006 0.8272 -3.3923 0.5977 -3.18055e-015 7.95139e-016 -3.97569e-016 0.565 -2.3158 0.4082 0 1.59028e-015 -0 -0.916 -9.2044 0.2193 2.02658e-006 -4.53747e-006 -3.75742e-006 -0.0117 -4.1944 -0.0248 0.0129643 0.00231389 -8.17167e-005 -0.0071 -2.3249 -0.0142 3.18055e-015 7.95139e-016 -7.95139e-016 -0.6113 -8.7231 -2.0637 2.02658e-006 -4.53747e-006 -3.75742e-006 0.1927 -3.8059 -0.2383 0.0163333 0.00302229 -0.00086428 0.1091 -2.1688 -0.1362 -6.36111e-015 1.59028e-015 -1.98785e-015 0.6151 -8.0947 -3.564 2.02658e-006 -4.53747e-006 -3.75742e-006 0.4882 -2.341 -0.6462 0.0145637 0.00367696 -0.00326016 0.3574 -1.7166 -0.4742 0 0 -3.57812e-015 1.4199 -1.8761 1.4221 2.02658e-006 -4.53747e-006 -3.75742e-006 1.1472 -3.4929 2.6336 -3.18055e-015 7.95139e-016 -3.97569e-016 0.8229 -2.3 1.6571 0 1.59028e-015 -0 -9.412 3.9771 -0.7758 -129.815 -22.5882 -163.868 -0.7531 -40.938 -3.55271e-015 -167.468 39.9714 139.699 0 -40.1986 0 -0.988157 48.4172 -8.36282 0 -4.4182 9.239 -1.76556e-031 -3.18055e-015 -3.18055e-015 9.4119 3.9773 -0.7758 137.999 -24.3022 164.53 0.7532 -40.9383 3.10862e-015 173.627 46.8335 178.576 0 -40.1986 7.10543e-015 7.76302 49.1203 3.72279 7.10543e-015 -4.4182 9.239 3.18055e-015 -6.36111e-015 -1.59028e-015 
39.8128 3.07813 10.9228 -2.15609e-007 -85.606 -2.21872e-007 0 8.7983 -4.7612 -0.0255974 5.20336 -0.102991 0 8.0291 0.4195 -0.0420188 10.4068 -0.204913 0 9.9351 -2.2114 -0.0420188 10.4068 -0.204914 0 22.3885 -0.4656 -3.83002e-007 -5.47194 -7.13982e-007 -0.0001 12.643 3.4389 -1.17567e-007 -26.6974 3.79038e-009 2.2603 21.606 7.4023 8.48046 13.846 -37.2467 13.5163 -1.1332 -5.0146 33.0193 4.02806 10.558 -0.0995001 -28.05 -0.2431 -15.8384 -21.8472 -15.3208 0.0679 -23.3996 -0.1402 -15.0774 -0.779413 -35.3063 0.7932 -9.069 2.5189 3.18055e-015 0 3.18055e-015 -0.8272 -3.3923 0.5977 6.36111e-015 7.95139e-016 1.59028e-015 -0.5649 -2.3158 0.4082 3.18055e-015 0 1.19271e-015 0.9159 -9.2044 0.2193 3.18055e-015 0 3.18055e-015 0.0117 -4.1944 -0.0248 -0.0128199 0.00233125 8.85452e-005 0.0071 -2.3249 -0.0142 8.60712e-031 -4.77083e-015 1.03368e-014 0.6113 -8.7231 -2.0637 3.18055e-015 0 3.18055e-015 -0.1927 -3.8059 -0.2383 -0.0160548 0.00299665 0.000863024 -0.1091 -2.1688 -0.1362 6.36111e-015 -7.95139e-016 5.96354e-016 -0.6151 -8.0947 -3.5641 3.18055e-015 0 3.18055e-015 -0.4882 -2.341 -0.6462 -0.0125884 0.00312018 0.00282813 -0.3575 -1.7167 -0.4742 4.96564e-032 7.95139e-016 -3.57812e-015 -1.42 -1.8761 1.4223 3.18055e-015 0 3.18055e-015 -1.1471 -3.4929 2.6334 6.36111e-015 7.95139e-016 1.59028e-015 -0.823 -2.3 1.6571 3.18055e-015 0 1.19271e-015 -2.2603 21.606 7.4023 -8.88617 13.6225 32.0362 -13.5187 -1.1334 -5.0155 -33.1066 2.05694 -5.97062 0.0994 -28.0499 -0.2431 15.1314 -21.7849 15.0098 -0.0679 -23.3996 -0.1402 14.65 -1.83289 35.6829 -0.7932 -9.0691 2.5189 -1.27222e-014 -7.95139e-016 -0 0.8272 -3.3923 0.5977 -9.54166e-015 0 -2.38542e-015 0.565 -2.3158 0.4082 -9.54166e-015 0 1.59028e-015 -0.916 -9.2044 0.2193 -1.27222e-014 -7.95139e-016 -0 -0.0117 -4.1944 -0.0248 0.0129368 0.00231307 -8.90326e-005 -0.0071 -2.3249 -0.0142 -3.18055e-015 -1.59028e-015 1.19271e-015 -0.6113 -8.7231 -2.0637 -1.27222e-014 -7.95139e-016 -0 0.1927 -3.8059 -0.2383 0.0163127 0.00304118 -0.000883975 0.1091 -2.1688 -0.1362 -3.18055e-015 2.38542e-015 -1.59028e-015 0.6151 -8.0947 -3.564 -1.27222e-014 -7.95139e-016 -0 0.4882 -2.341 -0.6462 0.0145873 0.00368372 -0.00326679 0.3574 -1.7166 -0.4742 3.18055e-015 -7.15625e-015 -1.03368e-014 1.4199 -1.8761 1.4221 -1.27222e-014 -7.95139e-016 -0 1.1472 -3.4929 2.6336 -9.54166e-015 0 -2.38542e-015 0.8229 -2.3 1.6571 -9.54166e-015 0 1.59028e-015 -9.412 3.9771 -0.7758 -129.928 -22.6479 -163.574 -0.7531 -40.938 0 -167.404 40.9057 141.112 -3.55271e-015 -40.1986 -2.66454e-015 -1.29254 48.3881 -8.10644 -3.55271e-015 -4.4182 9.239 -1.92596e-007 -3.02279e-006 3.37387e-006 9.4119 3.9773 -0.7758 137.613 -23.6056 164.817 0.7532 -40.9383 -1.33227e-015 173.566 47.0866 178.1 0 -40.1986 0 7.8576 49.185 3.64712 7.10543e-015 -4.4182 9.239 -4.71948e-006 -9.93397e-006 2.83527e-006 
39.8116 2.94497 10.845 1.39688e-007 -84.8063 1.45523e-007 0 8.7983 -4.7612 -0.0248007 5.00352 -0.103413 7.10543e-015 8.0291 0.4195 -0.04073 10.0071 -0.205826 0 9.9351 -2.2114 -0.04073 10.0071 -0.205827 -7.10543e-015 22.3885 -0.4656 3.52716e-007 -5.8545 9.85648e-007 -0.0001 12.643 3.4389 8.13125e-008 -27.2746 6.03913e-008 2.2603 21.606 7.4023 7.29824 14.5593 -37.2233 13.5163 -1.1332 -5.0146 33.793 4.10761 10.5663 -0.0995 -28.05 -0.2431 -15.0159 -21.0555 -14.9704 0.0679 -23.3996 -0.1402 -15.0982 -1.45427 -35.5516 0.7932 -9.069 2.5189 0 0 -1.98785e-016 -0.8272 -3.3923 0.5977 -0 0 1.98785e-015 -0.5649 -2.3158 0.4082 3.31043e-032 -7.95139e-016 2.38542e-015 0.9159 -9.2044 0.2193 0 0 -1.98785e-016 0.0117 -4.1944 -0.0248 -0.0128069 0.00233255 8.94909e-005 0.0071 -2.3249 -0.0142 6.89673e-032 7.95139e-016 -4.96962e-015 0.6113 -8.7231 -2.0637 0 0 -1.98785e-016 -0.1927 -3.8059 -0.2383 -0.0160598 0.00300276 0.000855705 -0.1091 -2.1688 -0.1362 -6.36111e-015 -2.38542e-015 9.93923e-016 -0.6151 -8.0947 -3.5641 0 0 -1.98785e-016 -0.4882 -2.341 -0.6462 -0.0126129 0.00313208 0.00283233 -0.3575 -1.7167 -0.4742 -6.36111e-015 -7.95139e-016 -1.78906e-015 -1.42 -1.8761 1.4223 0 0 -1.98785e-016 -1.1471 -3.4929 2.6334 -0 0 1.98785e-015 -0.823 -2.3 1.6571 3.31043e-032 -7.95139e-016 2.38542e-015 -2.2603 21.606 7.4023 -7.6721 14.3569 32.0163 -13.5187 -1.1334 -5.0155 -33.9329 2.09387 -6.02598 0.0994001 -28.0499 -0.2431 14.3193 -21.0032 14.6709 -0.0679 -23.3996 -0.1402 14.6838 -2.51059 35.9099 -0.7932 -9.0691 2.5189 6.36111e-015 0 -7.95139e-016 0.8272 -3.3923 0.5977 3.18055e-015 -7.95139e-016 -3.97569e-016 0.565 -2.3158 0.4082 6.36111e-015 0 -0 -0.916 -9.2044 0.2193 6.36111e-015 0 -7.95139e-016 -0.0117 -4.1944 -0.0248 0.0129451 0.00231217 -8.30725e-005 -0.0071 -2.3249 -0.0142 6.36111e-015 0 2.78299e-015 -0.6113 -8.7231 -2.0637 6.36111e-015 0 -7.95139e-016 0.1927 -3.8059 -0.2383 0.0163337 0.00302718 -0.000860434 0.1091 -2.1688 -0.1362 -3.18055e-015 0 -2.78299e-015 0.6151 -8.0947 -3.564 6.36111e-015 0 -7.95139e-016 0.4882 -2.341 -0.6462 0.0145734 0.00366638 -0.00325276 0.3574 -1.7166 -0.4742 -3.18055e-015 -7.95139e-016 -5.1684e-015 1.4199 -1.8761 1.4221 6.36111e-015 0 -7.95139e-016 1.1472 -3.4929 2.6336 3.18055e-015 -7.95139e-016 -3.97569e-016 0.8229 -2.3 1.6571 6.36111e-015 0 -0 -9.412 3.9771 -0.7758 -130.041 -22.708 -163.294 -0.7531 -40.938 3.55271e-015 -167.364 41.8473 142.534 -3.55271e-015 -40.1986 -3.55271e-015 -1.59382 48.3626 -7.85533 0 -4.4182 9.239 -1.12487e-005 3.6905e-006 7.35436e-007 9.4119 3.9773 -0.7758 137.222 -22.9118 165.108 0.7532 -40.9383 -4.44089e-015 173.506 47.3407 177.624 0 -40.1986 7.10543e-015 7.95075 49.2494 3.57225 1.42109e-014 -4.4182 9.239 1.42057e-006 2.76933e-006 -3.72335e-007 
